<svg width="22" height="22" viewBox="0 0 22 22" fill="none" xmlns="http://www.w3.org/2000/svg">
<path fill-rule="evenodd" clip-rule="evenodd" d="M6.83059 6.45819C6.81729 8.74373 8.68699 10.6354 10.9671 10.6432C13.2704 10.6512 15.153 8.80248 15.1648 6.52161C15.1764 4.18681 13.3244 2.29786 11.0172 2.29164C8.71461 2.28525 6.84371 4.14741 6.83059 6.45819ZM11.0006 4.42442C12.1323 4.42546 13.0354 5.32889 13.0394 6.46372C13.0432 7.59836 12.1425 8.50767 11.0112 8.51165C9.87635 8.5158 8.96551 7.61876 8.95705 6.48825C8.94824 5.34306 9.85943 4.42321 11.0006 4.42442ZM6.77131 12.6929C7.75796 13.4651 8.91037 13.7802 10.1885 13.9136C10.1538 13.9507 10.1238 13.9834 10.0966 14.0131C10.0531 14.0606 10.0165 14.1006 9.97835 14.1391C9.79631 14.3217 9.61428 14.5044 9.43224 14.6871C8.67703 15.4451 7.92168 16.2031 7.16465 16.9596C6.9704 17.1537 6.83122 17.3701 6.81741 17.6533C6.79738 18.072 7.05691 18.4886 7.46476 18.6865C7.84844 18.873 8.24213 18.8142 8.57297 18.4878C9.30976 17.7608 10.0422 17.0296 10.763 16.2871C10.9432 16.1015 11.0415 16.061 11.2458 16.2748C11.7177 16.769 12.2022 17.2511 12.6868 17.7332C12.923 17.9681 13.1592 18.2031 13.394 18.4396C13.581 18.6281 13.7915 18.7625 14.0614 18.7812C14.4873 18.8104 14.9218 18.5375 15.1159 18.1228C15.2934 17.7433 15.226 17.3388 14.9037 17.0125C14.3022 16.4039 13.6978 15.7981 13.0934 15.1922C12.747 14.8449 12.4005 14.4976 12.0546 14.1498C12.0054 14.1003 11.9652 14.0563 11.9042 13.9894C11.8834 13.9667 11.8602 13.9412 11.8334 13.912C12.5325 13.8284 13.2389 13.7024 13.8839 13.4522C14.5659 13.1874 15.1798 12.8081 15.6902 12.2838C16.0229 11.9419 16.0264 11.5119 15.7563 11.0714C15.5199 10.6857 15.1091 10.5238 14.6686 10.637C14.4421 10.6954 14.2466 10.8098 14.0638 10.9501C12.2181 12.1926 9.69206 12.1577 7.85327 10.8933C7.76314 10.8307 7.66903 10.7725 7.57026 10.7258C7.06019 10.4851 6.56945 10.5972 6.27712 11.0165C5.9354 11.5064 5.97891 11.9818 6.41077 12.3969C6.5001 12.4827 6.59881 12.5591 6.69737 12.6354C6.72208 12.6545 6.74677 12.6736 6.77131 12.6929Z" fill="#FA9019"/>
</svg>
