<svg width="49" height="49" viewBox="0 0 49 49" xmlns="http://www.w3.org/2000/svg" xmlns:xlink="http://www.w3.org/1999/xlink"><title>DD254A31-31CE-4061-B27B-2947A03478B7</title><defs><path id="a" d="M0 36.108h34.256V.03H0z"/></defs><g fill="none" fill-rule="evenodd"><circle fill="#665CAC" cx="24.5" cy="24.5" r="24.5"/><g transform="translate(7.372 7.83)"><mask id="b" fill="#fff"><use xlink:href="#a"/></mask><path d="M30.39 3.547C29.49 2.723 25.863.093 17.784.057c0 0-9.528-.574-14.173 3.682C1.027 6.32.117 10.1.022 14.784-.076 19.47-.2 28.25 8.275 30.632l.008.002-.005 3.633s-.055 1.47.914 1.77c1.173.364 1.862-.754 2.982-1.958.615-.663 1.462-1.634 2.103-2.377 5.795.485 10.253-.627 10.76-.79 1.17-.38 7.79-1.228 8.868-10.007 1.11-9.052-.538-14.776-3.52-17.36" fill="#FEFEFE" mask="url(#b)"/></g><path d="M25.007 10.432s-8.093-.53-12.02 3.023c-2.188 2.157-2.925 5.363-3.006 9.276-.08 3.914-.498 11.39 6.67 13.377l-.03 6.037c-.002.34.052.574.25.622.14.034.35-.038.53-.218 1.144-1.15 4.813-5.57 4.813-5.57 4.923.322 8.838-.65 9.26-.786.99-.317 6.36-.78 7.27-8.11.94-7.56-.345-12.72-2.867-14.876-.76-.688-4.034-2.744-10.87-2.774z" fill="#665CAC"/><path d="M28.482 22.865c-.242 0-.444-.19-.456-.433-.077-1.55-.808-2.307-2.3-2.387-.25-.014-.444-.23-.43-.48.013-.252.23-.444.48-.43 1.968.104 3.062 1.23 3.163 3.25.01.253-.183.467-.435.48h-.023" fill="#FEFEFE"/><path d="M30.827 23.65h-.01c-.253-.005-.453-.214-.447-.466.035-1.56-.41-2.823-1.364-3.86-.948-1.037-2.25-1.602-3.98-1.73-.253-.017-.442-.236-.423-.487.018-.252.237-.44.49-.422 1.946.143 3.49.823 4.587 2.022 1.104 1.202 1.644 2.716 1.603 4.497-.005.25-.21.446-.456.446" fill="#FEFEFE"/><path d="M33.227 24.588c-.25 0-.454-.202-.456-.453-.02-2.79-.825-4.92-2.46-6.513-1.613-1.57-3.652-2.375-6.06-2.393-.252-.003-.455-.208-.454-.46.002-.25.206-.453.457-.453h.003c2.652.02 4.904.91 6.693 2.652 1.79 1.746 2.71 4.155 2.734 7.158.002.252-.2.458-.453.46h-.003zM25.842 28.52s.643.058.988-.37l.674-.847c.325-.42 1.11-.688 1.88-.26.428.24 1.195.715 1.676 1.068.51.376 1.555 1.245 1.558 1.248.498.42.613 1.035.274 1.685l-.003.013c-.35.614-.815 1.19-1.404 1.726-.007.003-.007.006-.013.01-.483.403-.96.63-1.425.688-.055.01-.124.016-.208.012-.204.002-.406-.028-.606-.092l-.015-.023c-.72-.202-1.92-.71-3.918-1.81-1.3-.715-2.38-1.445-3.292-2.17-.48-.38-.977-.813-1.48-1.312l-.05-.05-.05-.05-.05-.05-.05-.05c-.5-.502-.932-.997-1.312-1.48-.728-.91-1.458-1.988-2.175-3.285-1.102-1.997-1.61-3.195-1.812-3.913l-.02-.015c-.066-.2-.096-.402-.094-.605-.004-.084 0-.152.012-.208.057-.467.286-.942.69-1.424.002-.006.006-.006.01-.013.536-.588 1.112-1.053 1.727-1.4l.013-.004c.65-.34 1.268-.225 1.687.273.004.003.873 1.046 1.25 1.555.352.48.827 1.247 1.07 1.675.427.767.16 1.553-.262 1.876l-.848.673c-.43.345-.372.987-.372.987s1.254 4.745 5.95 5.94" fill="#FEFEFE"/></g></svg>