<svg width="22" height="22" viewBox="0 0 22 22" fill="none" xmlns="http://www.w3.org/2000/svg">
<path d="M17.1036 12.9185C18.521 14.2373 18.8136 14.8692 18.8593 14.9516C19.4445 15.9224 18.2192 15.9957 18.2192 15.9957L15.86 16.0323C15.86 16.0323 15.3479 16.133 14.6895 15.6751C13.8025 15.0707 12.9521 13.4863 12.3211 13.697C11.6719 13.9076 11.6902 15.3271 11.6902 15.3271C11.6902 15.3271 11.6902 15.5286 11.5439 15.6843C11.3793 15.8583 11.0592 15.7942 11.0592 15.7942H10.0076C10.0076 15.7942 7.67585 16.0323 5.63668 13.8985C3.39633 11.5723 1.42117 6.99324 1.42117 6.99324C1.42117 6.99324 1.31144 6.7185 1.43031 6.56281C1.56748 6.41628 1.95154 6.41628 1.95154 6.41628H4.47536C4.47536 6.41628 4.72225 6.41628 4.8777 6.56281C5.01487 6.66355 5.09717 6.87419 5.09717 6.87419C5.09717 6.87419 5.49951 7.89074 6.04817 8.82486C7.09976 10.6473 7.58441 11.0411 7.92275 10.8488C8.4714 10.5649 8.31595 8.27538 8.31595 8.27538C8.31595 8.27538 8.32509 7.44199 8.05077 7.07566C7.84045 6.79176 7.4381 6.70018 7.26436 6.68187C7.11805 6.66355 7.3558 6.33386 7.65756 6.17817C8.11478 5.95837 8.91033 5.95837 9.86133 5.95837C10.602 5.95837 10.8123 6.01332 11.0958 6.07743C11.9737 6.28807 11.6719 7.10314 11.6719 9.04466C11.6719 9.67657 11.5805 10.5374 12.0102 10.8397C12.2023 10.9679 12.6778 10.858 13.8665 8.85234C14.4152 7.89989 14.8358 6.77345 14.8358 6.77345C14.8358 6.77345 14.9273 6.58113 15.0644 6.48954C15.2107 6.41628 15.4119 6.41628 15.4119 6.41628H18.0637C18.0637 6.41628 18.8684 6.3247 18.9965 6.68187C19.1336 7.05735 18.6947 7.94569 17.6065 9.38351C15.8325 11.7646 15.6314 11.5448 17.1036 12.9185Z" fill="#447DBD"/>
</svg>
