<svg width="22" height="22" viewBox="0 0 22 22" fill="none" xmlns="http://www.w3.org/2000/svg">
<path fill-rule="evenodd" clip-rule="evenodd" d="M18.1731 4.97592C18.9584 5.1873 19.5775 5.80632 19.789 6.59141C20.1816 8.02573 20.1665 11.0151 20.1665 11.0151C20.1665 11.0151 20.1665 13.9895 19.789 15.4238C19.5775 16.2089 18.9584 16.8279 18.1731 17.0393C16.7385 17.4167 10.9999 17.4167 10.9999 17.4167C10.9999 17.4167 5.2764 17.4167 3.82665 17.0242C3.04137 16.8128 2.42221 16.1938 2.21079 15.4087C1.83325 13.9895 1.83325 11 1.83325 11C1.83325 11 1.83325 8.02573 2.21079 6.59141C2.42221 5.80632 3.05648 5.1722 3.82665 4.96083C5.2613 4.58337 10.9999 4.58337 10.9999 4.58337C10.9999 4.58337 16.7385 4.58337 18.1731 4.97592ZM13.9447 11L9.17264 13.7479V8.2522L13.9447 11Z" fill="#FF2638"/>
</svg>
